<svg width="28" height="25" viewBox="0 0 28 25" fill="none" xmlns="http://www.w3.org/2000/svg">
<path opacity="0.3" d="M13.5683 16.1619C14.5 16.1619 15.3935 15.7887 16.0523 15.1243C16.7111 14.46 17.0812 13.559 17.0812 12.6195C17.0812 12.5157 17.0765 12.4129 17.0677 12.3114L13.2628 16.1483C13.3635 16.1571 13.4651 16.1619 13.5683 16.1619ZM25.196 1.66193L23.8561 0.312013C23.8091 0.264596 23.7453 0.237961 23.6787 0.237961C23.6122 0.237961 23.5484 0.264596 23.5014 0.312013L20.0725 3.77063C18.181 2.79583 16.0547 2.30843 13.6938 2.30843C7.66535 2.30843 3.16756 5.47448 0.200407 11.8066C0.0811415 12.0613 0.0192871 12.3394 0.0192871 12.621C0.0192871 12.9027 0.0811415 13.1808 0.200407 13.4355C1.38601 15.9538 2.81366 17.9722 4.48334 19.4908L1.1652 22.8356C1.11818 22.883 1.09177 22.9474 1.09177 23.0145C1.09177 23.0815 1.11818 23.1459 1.1652 23.1933L2.50419 24.5435C2.55124 24.591 2.61504 24.6176 2.68156 24.6176C2.74808 24.6176 2.81188 24.591 2.85893 24.5435L25.196 2.01997C25.2194 1.99647 25.2379 1.96857 25.2505 1.93785C25.2631 1.90713 25.2696 1.87421 25.2696 1.84095C25.2696 1.8077 25.2631 1.77478 25.2505 1.74406C25.2379 1.71334 25.2194 1.68543 25.196 1.66193ZM8.048 12.6195C8.04792 11.658 8.2948 10.7128 8.7646 9.87614C9.2344 9.03945 9.9111 8.33974 10.7288 7.84516C11.5464 7.35058 12.4772 7.07801 13.4304 7.054C14.3836 7.02998 15.3267 7.25534 16.1679 7.70812L14.6429 9.24591C14.0279 9.04733 13.3705 9.02342 12.7429 9.17679C12.1153 9.33016 11.5417 9.6549 11.0851 10.1154C10.6284 10.5758 10.3064 11.1542 10.1543 11.7871C10.0022 12.42 10.0259 13.0829 10.2229 13.7031L8.69789 15.2409C8.26995 14.4346 8.04667 13.534 8.048 12.6195Z" fill="#03014C"/>
<path opacity="0.3" d="M27.6967 11.9601C26.5693 9.65979 25.2273 7.78407 23.6709 6.33292L19.0541 10.8058C19.4433 11.7914 19.5296 12.865 19.3025 13.897C19.0754 14.929 18.5448 15.8752 17.7746 16.6214C17.0044 17.3675 16.0276 17.8816 14.9624 18.1016C13.8971 18.3216 12.7889 18.238 11.7715 17.861L7.85559 21.6546C9.67232 22.469 11.693 22.8763 13.9175 22.8763C20.0737 22.8763 24.6667 19.7702 27.6967 13.5581C27.8185 13.3083 27.8817 13.0354 27.8817 12.7591C27.8817 12.4828 27.8185 12.2099 27.6967 11.9601Z" fill="#03014C"/>
</svg>
