<svg width="28" height="24" viewBox="0 0 28 24" fill="none" xmlns="http://www.w3.org/2000/svg">
<path opacity="0.3" d="M13.8852 15.6055C14.7772 15.6055 15.6326 15.2482 16.2634 14.6122C16.8941 13.9762 17.2484 13.1135 17.2484 12.214C17.2484 12.1147 17.2439 12.0163 17.2355 11.9191L13.5927 15.5925C13.6891 15.601 13.7864 15.6055 13.8852 15.6055ZM25.0175 1.72341L23.7347 0.431004C23.6896 0.385608 23.6285 0.360107 23.5649 0.360107C23.5012 0.360107 23.4401 0.385608 23.395 0.431004L20.1123 3.74226C18.3013 2.80899 16.2657 2.34236 14.0053 2.34236C8.23378 2.34236 3.92764 5.37351 1.08692 11.4358C0.972732 11.6796 0.913513 11.9459 0.913513 12.2155C0.913513 12.4852 0.972732 12.7515 1.08692 12.9953C2.22201 15.4063 3.58882 17.3387 5.18735 18.7926L2.0106 21.9949C1.96558 22.0403 1.9403 22.1019 1.9403 22.1661C1.9403 22.2303 1.96558 22.2919 2.0106 22.3373L3.29253 23.6301C3.33758 23.6754 3.39866 23.701 3.46235 23.701C3.52603 23.701 3.58711 23.6754 3.63216 23.6301L25.0175 2.06619C25.0398 2.04369 25.0576 2.01697 25.0696 1.98757C25.0817 1.95816 25.088 1.92663 25.088 1.8948C25.088 1.86296 25.0817 1.83144 25.0696 1.80203C25.0576 1.77262 25.0398 1.74591 25.0175 1.72341ZM8.60013 12.214C8.60005 11.2935 8.83641 10.3886 9.28619 9.58761C9.73598 8.78657 10.3838 8.11667 11.1667 7.64317C11.9495 7.16967 12.8406 6.90871 13.7532 6.88572C14.6658 6.86272 15.5687 7.07848 16.374 7.51196L14.914 8.98424C14.3252 8.79412 13.6958 8.77122 13.095 8.91806C12.4941 9.0649 11.945 9.37579 11.5078 9.81664C11.0706 10.2575 10.7623 10.8112 10.6167 11.4172C10.4711 12.0231 10.4938 12.6577 10.6823 13.2515L9.22233 14.7237C8.81262 13.9518 8.59885 13.0896 8.60013 12.214Z" fill="#03014C"/>
<path opacity="0.3" d="M27.4117 11.5827C26.3323 9.38043 25.0475 7.58462 23.5574 6.19531L19.1374 10.4776C19.5099 11.4212 19.5925 12.449 19.3751 13.4371C19.1577 14.4251 18.6497 15.331 17.9123 16.0454C17.1749 16.7597 16.2398 17.2519 15.2199 17.4625C14.2 17.6731 13.139 17.5931 12.1651 17.2322L8.41595 20.8642C10.1553 21.6439 12.0898 22.0337 14.2196 22.0337C20.1134 22.0337 24.5108 19.06 27.4117 13.1126C27.5283 12.8735 27.5888 12.6122 27.5888 12.3477C27.5888 12.0832 27.5283 11.8219 27.4117 11.5827Z" fill="#03014C"/>
</svg>
