<svg width="19" height="18" viewBox="0 0 19 18" fill="none" xmlns="http://www.w3.org/2000/svg">
<g opacity="0.5">
<path d="M1.68964 6.74588C1.68987 6.5958 1.72862 6.44829 1.80217 6.31746C1.87572 6.18664 1.98161 6.07688 2.10972 5.99868L9.58257 1.4313L17.0554 5.99868C17.1835 6.07688 17.2894 6.18664 17.363 6.31746C17.4365 6.44829 17.4753 6.5958 17.4755 6.74588V15.4632C17.4755 15.6958 17.3831 15.9188 17.2186 16.0833C17.0542 16.2478 16.8311 16.3402 16.5985 16.3402H2.56663C2.33404 16.3402 2.11097 16.2478 1.9465 16.0833C1.78203 15.9188 1.68964 15.6958 1.68964 15.4632V6.74588Z" stroke="#03014C" stroke-width="1.75399"/>
<path d="M1.68958 7.1318L9.58251 11.9553L17.4754 7.1318" stroke="#03014C" stroke-width="1.75399" stroke-linecap="round"/>
</g>
</svg>
