<svg width="21" height="15" viewBox="0 0 21 15" fill="none" xmlns="http://www.w3.org/2000/svg">
<g opacity="0.4">
<path d="M14.0048 7.40314C14.0048 8.23131 13.6758 9.02556 13.0902 9.61117C12.5046 10.1968 11.7103 10.5258 10.8821 10.5258C10.054 10.5258 9.25972 10.1968 8.67412 9.61117C8.08851 9.02556 7.75952 8.23131 7.75952 7.40314C7.75952 6.57497 8.08851 5.78072 8.67412 5.19511C9.25972 4.60951 10.054 4.28052 10.8821 4.28052C11.7103 4.28052 12.5046 4.60951 13.0902 5.19511C13.6758 5.78072 14.0048 6.57497 14.0048 7.40314Z" fill="#03014C"/>
<path fill-rule="evenodd" clip-rule="evenodd" d="M0.889771 7.4031C0.889771 7.4031 4.63692 0.533325 10.8822 0.533325C17.1274 0.533325 20.8746 7.4031 20.8746 7.4031C20.8746 7.4031 17.1274 14.2729 10.8822 14.2729C4.63692 14.2729 0.889771 7.4031 0.889771 7.4031ZM10.8822 11.7748C12.0416 11.7748 13.1536 11.3142 13.9734 10.4943C14.7933 9.67449 15.2538 8.56254 15.2538 7.4031C15.2538 6.24366 14.7933 5.13171 13.9734 4.31186C13.1536 3.49201 12.0416 3.03142 10.8822 3.03142C9.72273 3.03142 8.61077 3.49201 7.79093 4.31186C6.97108 5.13171 6.51049 6.24366 6.51049 7.4031C6.51049 8.56254 6.97108 9.67449 7.79093 10.4943C8.61077 11.3142 9.72273 11.7748 10.8822 11.7748Z" fill="#03014C"/>
</g>
</svg>
