<svg width="14" height="18" viewBox="0 0 14 18" fill="none" xmlns="http://www.w3.org/2000/svg">
<path opacity="0.5" d="M6.79087 0.410645C4.49512 0.410645 2.62737 2.27839 2.62737 4.57414V6.23954H1.79467C0.876204 6.23954 0.129272 6.98647 0.129272 7.90494V15.3992C0.129272 16.3177 0.876204 17.0646 1.79467 17.0646H11.7871C12.7055 17.0646 13.4525 16.3177 13.4525 15.3992V7.90494C13.4525 6.98647 12.7055 6.23954 11.7871 6.23954H10.9544V4.57414C10.9544 2.27839 9.08662 0.410645 6.79087 0.410645ZM4.29277 4.57414C4.29277 3.19686 5.41358 2.07604 6.79087 2.07604C8.16815 2.07604 9.28897 3.19686 9.28897 4.57414V6.23954H4.29277V4.57414ZM11.7887 15.3992H7.62357V13.5023C8.11903 13.2134 8.45627 12.6821 8.45627 12.0684C8.45627 11.15 7.70934 10.403 6.79087 10.403C5.8724 10.403 5.12547 11.15 5.12547 12.0684C5.12547 12.6813 5.46271 13.2134 5.95817 13.5023V15.3992H1.79467V7.90494H11.7871L11.7887 15.3992Z" fill="#03014C"/>
</svg>
