<svg width="18" height="19" viewBox="0 0 18 19" fill="none" xmlns="http://www.w3.org/2000/svg">
<path opacity="0.5" d="M16.9009 15.4111C16.4809 14.4161 15.8713 13.5123 15.1062 12.7501C14.3434 11.9857 13.4398 11.3762 12.4452 10.9554C12.4363 10.9509 12.4274 10.9487 12.4185 10.9442C13.8058 9.94219 14.7076 8.30999 14.7076 6.46848C14.7076 3.41785 12.2359 0.946167 9.18528 0.946167C6.13465 0.946167 3.66297 3.41785 3.66297 6.46848C3.66297 8.30999 4.56479 9.94219 5.95205 10.9465C5.94315 10.9509 5.93424 10.9531 5.92533 10.9576C4.92775 11.3784 4.0326 11.9819 3.26438 12.7523C2.49996 13.5151 1.89049 14.4188 1.46963 15.4133C1.05617 16.3869 0.833185 17.4308 0.812739 18.4884C0.812144 18.5122 0.816313 18.5358 0.824999 18.558C0.833685 18.5801 0.846712 18.6003 0.863313 18.6173C0.879915 18.6343 0.899754 18.6478 0.921662 18.657C0.943571 18.6663 0.967105 18.671 0.990878 18.671H2.32692C2.4249 18.671 2.50283 18.5931 2.50506 18.4973C2.5496 16.7783 3.23988 15.1684 4.46014 13.9481C5.7227 12.6855 7.39943 11.9908 9.18528 11.9908C10.9711 11.9908 12.6479 12.6855 13.9104 13.9481C15.1307 15.1684 15.821 16.7783 15.8655 18.4973C15.8677 18.5953 15.9457 18.671 16.0436 18.671H17.3797C17.4035 18.671 17.427 18.6663 17.4489 18.657C17.4708 18.6478 17.4906 18.6343 17.5072 18.6173C17.5238 18.6003 17.5369 18.5801 17.5456 18.558C17.5542 18.5358 17.5584 18.5122 17.5578 18.4884C17.5356 17.424 17.3151 16.3886 16.9009 15.4111ZM9.18528 10.2985C8.16321 10.2985 7.20125 9.89989 6.47756 9.1762C5.75387 8.45251 5.35529 7.49055 5.35529 6.46848C5.35529 5.44641 5.75387 4.48446 6.47756 3.76077C7.20125 3.03708 8.16321 2.63849 9.18528 2.63849C10.2074 2.63849 11.1693 3.03708 11.893 3.76077C12.6167 4.48446 13.0153 5.44641 13.0153 6.46848C13.0153 7.49055 12.6167 8.45251 11.893 9.1762C11.1693 9.89989 10.2074 10.2985 9.18528 10.2985Z" fill="#03014C"/>
</svg>
