<svg width="27" height="27" viewBox="0 0 27 27" fill="none" xmlns="http://www.w3.org/2000/svg">
<path d="M26.5614 13.2487C26.5614 6.0665 20.7737 0.247803 13.6406 0.247803C6.50266 0.247803 0.719788 6.0665 0.719788 13.2487C0.719788 19.7361 5.44316 25.1152 11.6217 26.0895V17.0075H8.34065V13.2495H11.6217V10.3836C11.6217 7.12607 13.5477 5.32708 16.5002 5.32708C17.9142 5.32708 19.3944 5.58059 19.3944 5.58059V8.77962H17.7624C16.1602 8.77962 15.6595 9.78312 15.6595 10.811V13.2487H19.2426L18.6668 17.0067H15.6595V26.0886C21.8332 25.1144 26.5614 19.7353 26.5614 13.2478V13.2487Z" fill="#193FF6"/>
</svg>
