<svg width="28" height="27" viewBox="0 0 28 27" fill="none" xmlns="http://www.w3.org/2000/svg">
<path d="M27.4347 13.6512C27.4347 6.24137 21.4635 0.23822 14.1043 0.23822C6.74006 0.23822 0.773865 6.24137 0.773865 13.6512C0.773865 20.3443 5.64697 25.8939 12.0214 26.8991V17.5292H8.63631V13.652H12.0214V10.6953C12.0214 7.33453 14.0085 5.47851 17.0545 5.47851C18.5133 5.47851 20.0405 5.74006 20.0405 5.74006V9.0405H18.3567C16.7037 9.0405 16.1872 10.0758 16.1872 11.1363V13.6512H19.8839L19.2898 17.5284H16.1872V26.8982C22.5566 25.8931 27.4347 20.3435 27.4347 13.6504V13.6512Z" fill="#193FF6"/>
</svg>
