<svg width="16" height="17" viewBox="0 0 16 17" fill="none" xmlns="http://www.w3.org/2000/svg">
<path opacity="0.5" d="M7.79087 0.977173C5.49511 0.977173 3.62737 2.84492 3.62737 5.14067C3.62737 7.43642 5.49511 9.30417 7.79087 9.30417C10.0866 9.30417 11.9544 7.43642 11.9544 5.14067C11.9544 2.84492 10.0866 0.977173 7.79087 0.977173ZM7.79087 7.63877C6.41358 7.63877 5.29277 6.51796 5.29277 5.14067C5.29277 3.76339 6.41358 2.64257 7.79087 2.64257C9.16815 2.64257 10.289 3.76339 10.289 5.14067C10.289 6.51796 9.16815 7.63877 7.79087 7.63877ZM15.2852 16.7985V15.9658C15.2852 12.7524 12.6697 10.1369 9.45627 10.1369H6.12547C2.91125 10.1369 0.29657 12.7524 0.29657 15.9658V16.7985H1.96197V15.9658C1.96197 13.67 3.82971 11.8023 6.12547 11.8023H9.45627C11.752 11.8023 13.6198 13.67 13.6198 15.9658V16.7985H15.2852Z" fill="#03014C"/>
</svg>
